<?xml version="1.0" standalone="no"?>
<!DOCTYPE svg PUBLIC "-//W3C//DTD SVG 20010904//EN"
 "http://www.w3.org/TR/2001/REC-SVG-20010904/DTD/svg10.dtd">
<svg version="1.0" xmlns="http://www.w3.org/2000/svg"
 width="450.000000pt" height="450.000000pt" viewBox="0 0 450.000000 450.000000"
 preserveAspectRatio="xMidYMid meet">
<metadata>
Created by potrace 1.11, written by Peter Selinger 2001-2013
</metadata>
<g transform="translate(0.000000,450.000000) scale(0.100000,-0.100000)"
fill="#000000" stroke="none">
<path d="M1085 3794 c-303 -67 -509 -282 -635 -663 -56 -167 -71 -247 -77
-412 -9 -221 23 -387 108 -568 81 -173 160 -270 571 -703 l149 -157 -53 -35
c-59 -40 -100 -45 -153 -20 -39 18 -51 46 -59 129 -6 65 -21 85 -67 85 -41 0
-58 -9 -74 -41 -29 -54 -20 -77 56 -151 39 -38 68 -74 66 -81 -3 -9 -47 -11
-166 -9 -185 4 -202 -1 -222 -67 -10 -33 -9 -44 7 -77 36 -71 113 -71 195 1
45 40 55 45 99 45 89 0 51 -53 -62 -90 -87 -28 -123 -66 -113 -119 9 -47 12
-51 52 -68 72 -30 99 -9 144 111 29 79 106 135 123 90 11 -29 6 -98 -10 -139
-11 -30 -13 -51 -7 -76 9 -32 12 -34 53 -34 35 0 46 5 64 28 l21 28 -28 77
c-15 43 -27 90 -27 105 0 24 4 27 34 27 29 0 38 -6 57 -36 52 -85 171 -73 138
13 -13 34 -20 39 -86 59 -29 8 -60 22 -68 30 -20 21 -19 67 3 86 22 21 118 68
135 68 8 0 43 -30 79 -68 36 -37 149 -150 251 -251 l186 -184 73 13 c148 26
550 131 739 193 459 152 827 337 1051 530 343 296 517 734 479 1210 -21 256
-82 400 -232 547 -117 115 -292 194 -496 225 -381 58 -739 -65 -1005 -343
l-76 -80 -37 89 c-147 354 -393 575 -744 666 -125 32 -331 40 -436 17z m247
-354 c82 -23 99 -95 47 -199 -34 -68 -102 -131 -163 -151 -30 -10 -41 -8 -86
15 -104 53 -180 146 -180 221 0 29 7 44 36 70 47 44 106 47 153 8 l31 -26 40
36 c42 38 62 42 122 26z m618 -218 c44 -36 18 -124 -49 -169 -31 -21 -35 -22
-70 -7 -58 24 -81 43 -98 79 -13 28 -14 40 -5 59 14 31 55 43 87 26 20 -10 26
-9 44 9 26 26 61 27 91 3z m1123 -113 c12 -6 32 -22 44 -37 l21 -25 32 26 c53
45 142 34 188 -21 17 -22 15 -82 -4 -127 -24 -59 -101 -129 -169 -154 -56 -21
-62 -22 -93 -7 -83 40 -182 169 -182 238 0 84 90 143 163 107z m-1158 -304
c150 -32 286 -118 361 -229 69 -101 84 -252 39 -395 -99 -311 -269 -486 -573
-587 -69 -23 -88 -25 -182 -21 -303 15 -449 166 -467 483 -13 232 84 434 292
604 167 137 342 185 530 145z m811 -70 c15 -22 15 -32 4 -68 -15 -50 -71 -107
-106 -107 -49 0 -124 58 -139 108 -15 52 52 98 98 67 22 -14 25 -14 42 5 27
30 80 27 101 -5z m-2002 -14 c16 -17 20 -18 44 -5 45 23 102 0 102 -43 0 -58
-74 -133 -132 -133 -52 0 -118 78 -118 139 0 53 69 81 104 42z m3005 -132 c43
-15 49 -47 19 -101 -28 -51 -77 -83 -115 -73 -42 10 -103 77 -103 113 0 51 60
80 94 46 15 -14 18 -14 42 5 31 25 24 24 63 10z m-341 -575 c21 -15 25 -15 41
0 38 34 101 13 101 -35 0 -54 -38 -107 -92 -128 -22 -8 -33 -5 -70 18 -78 49
-96 126 -35 151 30 12 30 12 55 -6z m-1115 -421 c213 -141 282 -273 205 -389
-59 -88 -304 -231 -523 -307 -168 -58 -133 -70 -317 114 l-161 162 6 86 c6 83
21 145 48 204 11 24 17 27 65 27 136 0 337 79 464 182 l34 28 56 -31 c30 -17
85 -52 123 -76z m761 37 c16 -16 21 -33 20 -78 0 -79 -34 -151 -97 -208 -45
-40 -53 -44 -86 -38 -127 24 -241 113 -241 189 0 25 27 72 52 89 28 20 88 21
114 1 26 -20 27 -19 48 19 10 18 28 38 39 44 50 25 116 17 151 -18z"/>
<path d="M1480 2625 c0 -22 4 -26 23 -23 14 2 22 10 22 23 0 13 -8 21 -22 23
-19 3 -23 -1 -23 -23z"/>
<path d="M1749 2614 c-17 -20 5 -49 48 -62 57 -17 117 -73 143 -134 32 -74 34
-196 3 -253 -45 -84 -114 -129 -216 -141 -117 -14 -218 45 -268 157 -13 27
-28 49 -35 49 -72 0 -53 -97 36 -189 56 -58 117 -83 213 -89 152 -9 267 40
336 145 42 63 54 114 48 198 -8 121 -80 241 -181 300 -49 28 -111 38 -127 19z"/>
<path d="M1394 2575 c-4 -9 -2 -21 4 -27 16 -16 47 -5 47 17 0 26 -42 34 -51
10z"/>
</g>
</svg>
